<svg width="18" height="15" viewBox="0 0 18 15" fill="none" xmlns="http://www.w3.org/2000/svg">
<rect y="6.85713" width="1.71429" height="1.71429" fill="#D9D9D9"/>
<rect x="2.57141" y="6.85713" width="1.71429" height="1.71429" fill="#D9D9D9"/>
<rect x="5.14288" y="6.85713" width="1.71429" height="1.71429" fill="#D9D9D9"/>
<rect x="7.71429" y="6.85713" width="1.71429" height="1.71429" fill="#D9D9D9"/>
<rect x="10.2857" y="6.85713" width="1.71429" height="1.71429" fill="#D9D9D9"/>
<rect x="12.8571" y="6.85713" width="1.71429" height="1.71429" fill="#D9D9D9"/>
<rect x="9.42859" y="-7.62939e-06" width="1.71429" height="1.71429" fill="#D9D9D9"/>
<rect x="11.1429" y="1.71428" width="1.71429" height="1.71429" fill="#D9D9D9"/>
<rect x="12.8571" y="3.42857" width="1.71429" height="1.71429" fill="#D9D9D9"/>
<rect x="14.5714" y="5.14285" width="1.71429" height="1.71429" fill="#D9D9D9"/>
<rect x="16.2857" y="6.42857" width="1.71429" height="1.71429" fill="#D9D9D9"/>
<rect x="14.5714" y="8.14285" width="1.71429" height="1.71429" fill="#D9D9D9"/>
<rect x="12.8571" y="9.85713" width="1.71429" height="1.71429" fill="#D9D9D9"/>
<rect x="11.1429" y="11.5714" width="1.71429" height="1.71429" fill="#D9D9D9"/>
<rect x="9.42859" y="12.8571" width="1.71429" height="1.71429" fill="#D9D9D9"/>
</svg>
