<svg width="252" height="56" viewBox="0 0 252 56" fill="none" xmlns="http://www.w3.org/2000/svg">
<path fill-rule="evenodd" clip-rule="evenodd" d="M248.668 2.72513H2.72507V2.72514L10.2846 2.72514V10.2847L10.2846 10.2848V17.8444H2.72507V17.8444H10.2846L10.2846 25.4041H2.72507V52.4587H226.185V45.0957L233.745 45.0957V37.5361H241.305V45.0957V52.4587H241.305V45.0957V37.5361V29.9764H248.668V2.72513ZM2.72507 7.62939e-06H-6.10352e-05V2.72513V52.4587V55.1838H2.72507H248.668H251.393V52.4587V2.72513V7.62939e-06H248.668H2.72507ZM10.2848 17.8444H17.8444V10.2848H25.404V2.72514H17.8444L17.8443 2.72514H10.2848V10.2847L10.2848 10.2848V17.8444Z" fill="#FCA318"/>
</svg>
