<svg width="1280" height="53" viewBox="0 0 1280 53" fill="none" xmlns="http://www.w3.org/2000/svg">
<rect x="-4" width="13" height="13" fill="#D9D9D9"/>
<rect x="412" width="13" height="13" fill="#D9D9D9"/>
<rect x="828" width="13" height="13" fill="#D9D9D9"/>
<rect x="204" width="13" height="13" fill="#D9D9D9"/>
<rect x="620" width="13" height="13" fill="#D9D9D9"/>
<rect x="1036" width="13" height="13" fill="#D9D9D9"/>
<rect x="100" width="13" height="13" fill="#D9D9D9"/>
<rect x="516" width="13" height="13" fill="#D9D9D9"/>
<rect x="932" width="13" height="13" fill="#D9D9D9"/>
<rect x="308" width="13" height="13" fill="#D9D9D9"/>
<rect x="724" width="13" height="13" fill="#D9D9D9"/>
<rect x="1140" width="13" height="13" fill="#D9D9D9"/>
<rect x="48" width="13" height="13" fill="#D9D9D9"/>
<rect x="464" width="13" height="13" fill="#D9D9D9"/>
<rect x="880" width="13" height="13" fill="#D9D9D9"/>
<rect x="256" width="13" height="13" fill="#D9D9D9"/>
<rect x="672" width="13" height="13" fill="#D9D9D9"/>
<rect x="1088" width="13" height="13" fill="#D9D9D9"/>
<rect x="152" width="13" height="13" fill="#D9D9D9"/>
<rect x="568" width="13" height="13" fill="#D9D9D9"/>
<rect x="984" width="13" height="13" fill="#D9D9D9"/>
<rect x="360" width="13" height="13" fill="#D9D9D9"/>
<rect x="776" width="13" height="13" fill="#D9D9D9"/>
<rect x="1192" width="13" height="13" fill="#D9D9D9"/>
<rect x="1244" width="13" height="13" fill="#D9D9D9"/>
<rect x="22" width="13" height="13" fill="#D9D9D9"/>
<rect x="438" width="13" height="13" fill="#D9D9D9"/>
<rect x="854" width="13" height="13" fill="#D9D9D9"/>
<rect x="230" width="13" height="13" fill="#D9D9D9"/>
<rect x="646" width="13" height="13" fill="#D9D9D9"/>
<rect x="1062" width="13" height="13" fill="#D9D9D9"/>
<rect x="126" width="13" height="13" fill="#D9D9D9"/>
<rect x="542" width="13" height="13" fill="#D9D9D9"/>
<rect x="958" width="13" height="13" fill="#D9D9D9"/>
<rect x="334" width="13" height="13" fill="#D9D9D9"/>
<rect x="750" width="13" height="13" fill="#D9D9D9"/>
<rect x="1166" width="13" height="13" fill="#D9D9D9"/>
<rect x="74" width="13" height="13" fill="#D9D9D9"/>
<rect x="490" width="13" height="13" fill="#D9D9D9"/>
<rect x="906" width="13" height="13" fill="#D9D9D9"/>
<rect x="282" width="13" height="13" fill="#D9D9D9"/>
<rect x="698" width="13" height="13" fill="#D9D9D9"/>
<rect x="1114" width="13" height="13" fill="#D9D9D9"/>
<rect x="178" width="13" height="13" fill="#D9D9D9"/>
<rect x="594" width="13" height="13" fill="#D9D9D9"/>
<rect x="1010" width="13" height="13" fill="#D9D9D9"/>
<rect x="386" width="13" height="13" fill="#D9D9D9"/>
<rect x="802" width="13" height="13" fill="#D9D9D9"/>
<rect x="1218" width="13" height="13" fill="#D9D9D9"/>
<rect x="1270" width="13" height="13" fill="#D9D9D9"/>
<rect x="-4" y="27" width="13" height="13" fill="#D9D9D9"/>
<rect x="412" y="27" width="13" height="13" fill="#D9D9D9"/>
<rect x="828" y="27" width="13" height="13" fill="#D9D9D9"/>
<rect x="204" y="27" width="13" height="13" fill="#D9D9D9"/>
<rect x="620" y="27" width="13" height="13" fill="#D9D9D9"/>
<rect x="1036" y="27" width="13" height="13" fill="#D9D9D9"/>
<rect x="100" y="27" width="13" height="13" fill="#D9D9D9"/>
<rect x="516" y="27" width="13" height="13" fill="#D9D9D9"/>
<rect x="932" y="27" width="13" height="13" fill="#D9D9D9"/>
<rect x="308" y="27" width="13" height="13" fill="#D9D9D9"/>
<rect x="724" y="27" width="13" height="13" fill="#D9D9D9"/>
<rect x="1140" y="27" width="13" height="13" fill="#D9D9D9"/>
<rect x="48" y="27" width="13" height="13" fill="#D9D9D9"/>
<rect x="464" y="27" width="13" height="13" fill="#D9D9D9"/>
<rect x="880" y="27" width="13" height="13" fill="#D9D9D9"/>
<rect x="256" y="27" width="13" height="13" fill="#D9D9D9"/>
<rect x="672" y="27" width="13" height="13" fill="#D9D9D9"/>
<rect x="1088" y="27" width="13" height="13" fill="#D9D9D9"/>
<rect x="152" y="27" width="13" height="13" fill="#D9D9D9"/>
<rect x="568" y="27" width="13" height="13" fill="#D9D9D9"/>
<rect x="984" y="27" width="13" height="13" fill="#D9D9D9"/>
<rect x="360" y="27" width="13" height="13" fill="#D9D9D9"/>
<rect x="776" y="27" width="13" height="13" fill="#D9D9D9"/>
<rect x="1192" y="27" width="13" height="13" fill="#D9D9D9"/>
<rect x="1244" y="27" width="13" height="13" fill="#D9D9D9"/>
<rect x="22" y="27" width="13" height="13" fill="#D9D9D9"/>
<rect x="438" y="27" width="13" height="13" fill="#D9D9D9"/>
<rect x="854" y="27" width="13" height="13" fill="#D9D9D9"/>
<rect x="230" y="27" width="13" height="13" fill="#D9D9D9"/>
<rect x="646" y="27" width="13" height="13" fill="#D9D9D9"/>
<rect x="1062" y="27" width="13" height="13" fill="#D9D9D9"/>
<rect x="126" y="27" width="13" height="13" fill="#D9D9D9"/>
<rect x="542" y="27" width="13" height="13" fill="#D9D9D9"/>
<rect x="958" y="27" width="13" height="13" fill="#D9D9D9"/>
<rect x="334" y="27" width="13" height="13" fill="#D9D9D9"/>
<rect x="750" y="27" width="13" height="13" fill="#D9D9D9"/>
<rect x="1166" y="27" width="13" height="13" fill="#D9D9D9"/>
<rect x="74" y="27" width="13" height="13" fill="#D9D9D9"/>
<rect x="490" y="27" width="13" height="13" fill="#D9D9D9"/>
<rect x="906" y="27" width="13" height="13" fill="#D9D9D9"/>
<rect x="282" y="27" width="13" height="13" fill="#D9D9D9"/>
<rect x="698" y="27" width="13" height="13" fill="#D9D9D9"/>
<rect x="1114" y="27" width="13" height="13" fill="#D9D9D9"/>
<rect x="178" y="27" width="13" height="13" fill="#D9D9D9"/>
<rect x="594" y="27" width="13" height="13" fill="#D9D9D9"/>
<rect x="1010" y="27" width="13" height="13" fill="#D9D9D9"/>
<rect x="386" y="27" width="13" height="13" fill="#D9D9D9"/>
<rect x="802" y="27" width="13" height="13" fill="#D9D9D9"/>
<rect x="1218" y="27" width="13" height="13" fill="#D9D9D9"/>
<rect x="1270" y="27" width="13" height="13" fill="#D9D9D9"/>
<rect x="399" y="40" width="13" height="13" fill="#D9D9D9"/>
<rect x="815" y="40" width="13" height="13" fill="#D9D9D9"/>
<rect x="191" y="40" width="13" height="13" fill="#D9D9D9"/>
<rect x="607" y="40" width="13" height="13" fill="#D9D9D9"/>
<rect x="1023" y="40" width="13" height="13" fill="#D9D9D9"/>
<rect x="87" y="40" width="13" height="13" fill="#D9D9D9"/>
<rect x="503" y="40" width="13" height="13" fill="#D9D9D9"/>
<rect x="919" y="40" width="13" height="13" fill="#D9D9D9"/>
<rect x="295" y="40" width="13" height="13" fill="#D9D9D9"/>
<rect x="711" y="40" width="13" height="13" fill="#D9D9D9"/>
<rect x="1127" y="40" width="13" height="13" fill="#D9D9D9"/>
<rect x="35" y="40" width="13" height="13" fill="#D9D9D9"/>
<rect x="451" y="40" width="13" height="13" fill="#D9D9D9"/>
<rect x="867" y="40" width="13" height="13" fill="#D9D9D9"/>
<rect x="243" y="40" width="13" height="13" fill="#D9D9D9"/>
<rect x="659" y="40" width="13" height="13" fill="#D9D9D9"/>
<rect x="1075" y="40" width="13" height="13" fill="#D9D9D9"/>
<rect x="139" y="40" width="13" height="13" fill="#D9D9D9"/>
<rect x="555" y="40" width="13" height="13" fill="#D9D9D9"/>
<rect x="971" y="40" width="13" height="13" fill="#D9D9D9"/>
<rect x="347" y="40" width="13" height="13" fill="#D9D9D9"/>
<rect x="763" y="40" width="13" height="13" fill="#D9D9D9"/>
<rect x="1179" y="40" width="13" height="13" fill="#D9D9D9"/>
<rect x="1231" y="40" width="13" height="13" fill="#D9D9D9"/>
<rect x="9" y="40" width="13" height="13" fill="#D9D9D9"/>
<rect x="425" y="40" width="13" height="13" fill="#D9D9D9"/>
<rect x="841" y="40" width="13" height="13" fill="#D9D9D9"/>
<rect x="217" y="40" width="13" height="13" fill="#D9D9D9"/>
<rect x="633" y="40" width="13" height="13" fill="#D9D9D9"/>
<rect x="1049" y="40" width="13" height="13" fill="#D9D9D9"/>
<rect x="113" y="40" width="13" height="13" fill="#D9D9D9"/>
<rect x="529" y="40" width="13" height="13" fill="#D9D9D9"/>
<rect x="945" y="40" width="13" height="13" fill="#D9D9D9"/>
<rect x="321" y="40" width="13" height="13" fill="#D9D9D9"/>
<rect x="737" y="40" width="13" height="13" fill="#D9D9D9"/>
<rect x="1153" y="40" width="13" height="13" fill="#D9D9D9"/>
<rect x="61" y="40" width="13" height="13" fill="#D9D9D9"/>
<rect x="477" y="40" width="13" height="13" fill="#D9D9D9"/>
<rect x="893" y="40" width="13" height="13" fill="#D9D9D9"/>
<rect x="269" y="40" width="13" height="13" fill="#D9D9D9"/>
<rect x="685" y="40" width="13" height="13" fill="#D9D9D9"/>
<rect x="1101" y="40" width="13" height="13" fill="#D9D9D9"/>
<rect x="165" y="40" width="13" height="13" fill="#D9D9D9"/>
<rect x="581" y="40" width="13" height="13" fill="#D9D9D9"/>
<rect x="997" y="40" width="13" height="13" fill="#D9D9D9"/>
<rect x="373" y="40" width="13" height="13" fill="#D9D9D9"/>
<rect x="789" y="40" width="13" height="13" fill="#D9D9D9"/>
<rect x="1205" y="40" width="13" height="13" fill="#D9D9D9"/>
<rect x="1257" y="40" width="13" height="13" fill="#D9D9D9"/>
<rect x="9" y="13" width="13" height="13" fill="#D9D9D9"/>
<rect x="425" y="13" width="13" height="13" fill="#D9D9D9"/>
<rect x="841" y="13" width="13" height="13" fill="#D9D9D9"/>
<rect x="217" y="13" width="13" height="13" fill="#D9D9D9"/>
<rect x="633" y="13" width="13" height="13" fill="#D9D9D9"/>
<rect x="1049" y="13" width="13" height="13" fill="#D9D9D9"/>
<rect x="113" y="13" width="13" height="13" fill="#D9D9D9"/>
<rect x="529" y="13" width="13" height="13" fill="#D9D9D9"/>
<rect x="945" y="13" width="13" height="13" fill="#D9D9D9"/>
<rect x="321" y="13" width="13" height="13" fill="#D9D9D9"/>
<rect x="737" y="13" width="13" height="13" fill="#D9D9D9"/>
<rect x="1153" y="13" width="13" height="13" fill="#D9D9D9"/>
<rect x="61" y="13" width="13" height="13" fill="#D9D9D9"/>
<rect x="477" y="13" width="13" height="13" fill="#D9D9D9"/>
<rect x="893" y="13" width="13" height="13" fill="#D9D9D9"/>
<rect x="269" y="13" width="13" height="13" fill="#D9D9D9"/>
<rect x="685" y="13" width="13" height="13" fill="#D9D9D9"/>
<rect x="1101" y="13" width="13" height="13" fill="#D9D9D9"/>
<rect x="165" y="13" width="13" height="13" fill="#D9D9D9"/>
<rect x="581" y="13" width="13" height="13" fill="#D9D9D9"/>
<rect x="997" y="13" width="13" height="13" fill="#D9D9D9"/>
<rect x="373" y="13" width="13" height="13" fill="#D9D9D9"/>
<rect x="789" y="13" width="13" height="13" fill="#D9D9D9"/>
<rect x="1205" y="13" width="13" height="13" fill="#D9D9D9"/>
<rect x="1257" y="13" width="13" height="13" fill="#D9D9D9"/>
<rect x="35" y="13" width="13" height="13" fill="#D9D9D9"/>
<rect x="451" y="13" width="13" height="13" fill="#D9D9D9"/>
<rect x="867" y="13" width="13" height="13" fill="#D9D9D9"/>
<rect x="243" y="13" width="13" height="13" fill="#D9D9D9"/>
<rect x="659" y="13" width="13" height="13" fill="#D9D9D9"/>
<rect x="1075" y="13" width="13" height="13" fill="#D9D9D9"/>
<rect x="139" y="13" width="13" height="13" fill="#D9D9D9"/>
<rect x="555" y="13" width="13" height="13" fill="#D9D9D9"/>
<rect x="971" y="13" width="13" height="13" fill="#D9D9D9"/>
<rect x="347" y="13" width="13" height="13" fill="#D9D9D9"/>
<rect x="763" y="13" width="13" height="13" fill="#D9D9D9"/>
<rect x="1179" y="13" width="13" height="13" fill="#D9D9D9"/>
<rect x="87" y="13" width="13" height="13" fill="#D9D9D9"/>
<rect x="503" y="13" width="13" height="13" fill="#D9D9D9"/>
<rect x="919" y="13" width="13" height="13" fill="#D9D9D9"/>
<rect x="295" y="13" width="13" height="13" fill="#D9D9D9"/>
<rect x="711" y="13" width="13" height="13" fill="#D9D9D9"/>
<rect x="1127" y="13" width="13" height="13" fill="#D9D9D9"/>
<rect x="191" y="13" width="13" height="13" fill="#D9D9D9"/>
<rect x="607" y="13" width="13" height="13" fill="#D9D9D9"/>
<rect x="1023" y="13" width="13" height="13" fill="#D9D9D9"/>
<rect x="399" y="13" width="13" height="13" fill="#D9D9D9"/>
<rect x="815" y="13" width="13" height="13" fill="#D9D9D9"/>
<rect x="1231" y="13" width="13" height="13" fill="#D9D9D9"/>
</svg>
