<svg width="121" height="28" viewBox="0 0 121 28" fill="none" xmlns="http://www.w3.org/2000/svg">
<path d="M15.2987 0.874146H11.6753V9.93201H15.2987V0.874146Z" fill="#FCA318"/>
<path d="M9.05848 6.30887H5.43512V9.93202H9.05848V6.30887Z" fill="#FCA318"/>
<path d="M9.05839 12.5487H0V16.1719H9.05839V12.5487Z" fill="#FCA318"/>
<path d="M9.05848 18.8087H5.43512V22.4319H9.05848V18.8087Z" fill="#FCA318"/>
<path d="M21.5591 6.30887H17.9357V9.93202H21.5591V6.30887Z" fill="#FCA318"/>
<path d="M21.5591 18.8087H17.9357V22.4319H21.5591V18.8087Z" fill="#FCA318"/>
<path d="M19.2845 12.5487C17.8351 12.5487 16.4663 12.9513 15.3189 13.6759C14.2923 14.2999 13.4468 15.1654 12.8228 16.1719C12.1183 17.3393 11.6956 18.6879 11.6956 20.1372V27.9471H15.3189V26.6186V19.7346C15.3189 17.762 16.9092 16.1719 18.8819 16.1719H26.9942V14.4811V12.5487H19.2845Z" fill="#FCA318"/>
<path d="M33.4558 23.3578H30.9396V25.8739H33.4558V23.3578Z" fill="#F4F4F4"/>
<path d="M38.3271 23.3578H35.8109V25.8739H38.3271V23.3578Z" fill="#F4F4F4"/>
<path d="M43.1985 23.3578H40.6823V25.8739H43.1985V23.3578Z" fill="#F4F4F4"/>
<path d="M48.07 23.3578H45.5538V25.8739H48.07V23.3578Z" fill="#F4F4F4"/>
<path d="M52.9413 23.3578H50.4251V25.8739H52.9413V23.3578Z" fill="#F4F4F4"/>
<path d="M57.8127 23.3578H55.2965V25.8739H57.8127V23.3578Z" fill="#F4F4F4"/>
<path d="M62.6841 23.3578H60.1679V25.8739H62.6841V23.3578Z" fill="#F4F4F4"/>
<path d="M67.5556 23.3578H65.0394V25.8739H67.5556V23.3578Z" fill="#F4F4F4"/>
<path d="M72.4269 23.3578H69.9107V25.8739H72.4269V23.3578Z" fill="#F4F4F4"/>
<path d="M77.2983 23.3578H74.7821V25.8739H77.2983V23.3578Z" fill="#F4F4F4"/>
<path d="M82.1697 23.3578H79.6535V25.8739H82.1697V23.3578Z" fill="#F4F4F4"/>
<path d="M87.0412 23.3578H84.525V25.8739H87.0412V23.3578Z" fill="#F4F4F4"/>
<path d="M91.9126 23.3578H89.3964V25.8739H91.9126V23.3578Z" fill="#F4F4F4"/>
<path d="M96.784 23.3578H94.2678V25.8739H96.784V23.3578Z" fill="#F4F4F4"/>
<path d="M106.527 23.3578H104.011V25.8739H106.527V23.3578Z" fill="#F4F4F4"/>
<path d="M101.655 23.3578H99.1392V25.8739H101.655V23.3578Z" fill="#F4F4F4"/>
<path d="M31.0402 22.0696V6.87246C31.0402 6.51015 31.2214 6.34912 31.6039 6.34912H38.1058C39.535 6.34912 40.6421 6.71144 41.407 7.41594C42.1921 8.12044 42.5746 9.12687 42.5746 10.4554V11.4819C42.5746 12.911 41.87 13.837 40.4408 14.2597C41.1655 14.3603 41.7493 14.6421 42.172 15.0849C42.6148 15.5278 42.8161 16.1719 42.8161 16.9971V18.5068C42.8161 19.8151 42.4337 20.8216 41.6486 21.5462C40.8635 22.2507 39.7765 22.613 38.3675 22.613H31.624C31.2415 22.5929 31.0402 22.4117 31.0402 22.0696ZM34.7844 12.9312H37.5421C38.1259 12.9312 38.5486 12.8104 38.8103 12.589C39.072 12.3676 39.2129 11.9851 39.2129 11.4618V10.4755C39.2129 9.95214 39.072 9.5697 38.8103 9.34828C38.5486 9.12687 38.1259 9.0061 37.5421 9.0061H34.7441C34.5428 9.0061 34.4422 9.10674 34.4422 9.2879V12.6695C34.4824 12.8507 34.5831 12.9312 34.7844 12.9312ZM34.7844 19.9158H37.824C38.4278 19.9158 38.8506 19.795 39.1123 19.5736C39.3739 19.3522 39.5148 18.9697 39.5148 18.4464V16.977C39.5148 16.4537 39.3739 16.0914 39.1123 15.8699C38.8506 15.6485 38.4077 15.5479 37.7837 15.5479H34.8045C34.6032 15.5479 34.5025 15.6485 34.5025 15.8297V19.6541C34.4824 19.8151 34.5831 19.9158 34.7844 19.9158Z" fill="#FFA521"/>
<path d="M45.9362 22.0695V10.2339C45.9362 9.8716 46.1173 9.71057 46.4797 9.71057H48.8147C49.1972 9.71057 49.3783 9.89173 49.3783 10.2339V22.0494C49.3783 22.2708 49.3381 22.4117 49.2576 22.4721C49.177 22.5325 49.0361 22.5727 48.8348 22.5727H46.4998C46.1173 22.5929 45.9362 22.4117 45.9362 22.0695Z" fill="#FFA521"/>
<path d="M52.7803 12.4883H51.6933C51.4718 12.4883 51.3309 12.4481 51.2504 12.3877C51.1699 12.3273 51.1296 12.1864 51.1296 11.9851V10.2339C51.1296 9.87161 51.3108 9.71058 51.6933 9.71058H52.7803C52.9816 9.71058 53.0822 9.60993 53.0822 9.42878V7.03347C53.0822 6.67116 53.2835 6.51013 53.6861 6.51013H55.9608C56.3432 6.51013 56.5244 6.69129 56.5244 7.03347V9.42878C56.5244 9.60993 56.6251 9.71058 56.8465 9.71058H58.9601C59.3426 9.71058 59.5238 9.89174 59.5238 10.2339V11.9851C59.5238 12.1663 59.4835 12.3072 59.403 12.3676C59.3225 12.4481 59.1815 12.4883 58.9601 12.4883H56.8465C56.6251 12.4883 56.5244 12.589 56.5244 12.7701V18.3457C56.5244 18.8691 56.6452 19.2515 56.9069 19.4729C57.1686 19.6944 57.5712 19.8151 58.1549 19.8151H59.2419C59.6244 19.8151 59.8056 19.9963 59.8056 20.3385V22.0897C59.8056 22.2708 59.7653 22.4117 59.6848 22.4721C59.6043 22.5526 59.4634 22.5929 59.2419 22.5929H57.5913C56.1621 22.5929 55.0549 22.2306 54.2699 21.5261C53.4848 20.8216 53.1024 19.8151 53.1024 18.4866V12.7701C53.0822 12.5688 52.9816 12.4883 52.7803 12.4883Z" fill="#FFA521"/>
<path d="M61.879 18.4464V17.9432C61.879 17.5809 62.0601 17.4198 62.4426 17.4198H64.7374C65.1199 17.4198 65.301 17.601 65.301 17.9432V18.1445C65.301 18.7886 65.4419 19.2314 65.7036 19.4528C65.9653 19.6944 66.4686 19.8151 67.1932 19.8151H68.4614C69.1659 19.8151 69.6491 19.6944 69.9309 19.4327C70.2127 19.171 70.3536 18.7081 70.3536 18.0237V17.7218C70.3536 17.2387 70.1322 16.8562 69.7095 16.5946C69.2867 16.3329 68.7633 16.1719 68.1192 16.1316C67.4952 16.0712 66.8108 15.9907 66.066 15.8498C65.3413 15.7089 64.6569 15.5278 64.0127 15.2862C63.3887 15.0648 62.8452 14.622 62.4225 13.9376C61.9998 13.2734 61.7783 12.4078 61.7783 11.3813V10.4956C61.7783 9.18725 62.1809 8.16069 62.966 7.43607C63.751 6.71144 64.8582 6.34912 66.2673 6.34912H68.9646C70.3939 6.34912 71.501 6.71144 72.2861 7.43607C73.0711 8.16069 73.4737 9.18725 73.4737 10.4956V10.9787C73.4737 11.341 73.2925 11.502 72.9101 11.502H70.6153C70.2328 11.502 70.0517 11.3209 70.0517 10.9787V10.8177C70.0517 10.1534 69.9107 9.7106 69.6491 9.46905C69.3874 9.22751 68.8841 9.10674 68.1595 9.10674H67.1127C66.3679 9.10674 65.8647 9.22751 65.603 9.48918C65.3413 9.75085 65.2004 10.2541 65.2004 11.019V11.502C65.2004 12.2871 65.9452 12.75 67.4147 12.8708C68.9445 12.9916 70.3133 13.2734 71.501 13.7363C72.125 13.998 72.6685 14.4408 73.0912 15.0849C73.514 15.729 73.7354 16.5543 73.7354 17.5809V18.4464C73.7354 19.7548 73.3328 20.7813 72.5477 21.5059C71.7627 22.2306 70.6555 22.5929 69.2465 22.5929H66.2874C64.8783 22.5929 63.7712 22.2306 62.9861 21.5059C62.2816 20.7813 61.879 19.7548 61.879 18.4464Z" fill="#F4F4F4"/>
<path d="M82.1496 22.5929H79.0697C78.7275 22.5929 78.5061 22.4117 78.4256 22.0695L75.7081 10.2339C75.6275 9.8716 75.7684 9.71057 76.1107 9.71057H78.7275C79.1301 9.71057 79.3314 9.89173 79.3717 10.2339L80.5996 18.8691H80.821L82.7333 10.2339C82.7937 9.8716 82.995 9.71057 83.3574 9.71057H85.7327C86.1151 9.71057 86.3366 9.89173 86.4171 10.2339L88.2892 18.8691H88.5106L89.7586 10.2339C89.819 9.8716 90.0203 9.71057 90.4028 9.71057H92.9995C93.3619 9.71057 93.5028 9.89173 93.4021 10.2339L90.7047 22.0494C90.6242 22.4117 90.4229 22.5727 90.0606 22.5727H86.9807C86.6184 22.5727 86.397 22.3916 86.3366 22.0494L84.6859 13.5149H84.4645L82.834 22.0494C82.7535 22.4117 82.532 22.5929 82.1496 22.5929Z" fill="#F4F4F4"/>
<path d="M100.327 22.5929H99.6625C98.2333 22.5929 97.1261 22.2306 96.3612 21.5261C95.5761 20.8216 95.1937 19.795 95.1937 18.4665V13.8168C95.1937 12.4883 95.5761 11.4618 96.3612 10.7573C97.1462 10.0528 98.2333 9.69046 99.6625 9.69046H105.923C106.325 9.69046 106.527 9.87162 106.527 10.2138V22.0293C106.527 22.3916 106.325 22.5526 105.923 22.5526H103.648C103.266 22.5526 103.085 22.3715 103.085 22.0293V21.204H102.984C102.783 21.667 102.44 22.0092 101.937 22.2306C101.414 22.4721 100.89 22.5929 100.327 22.5929ZM103.085 17.8828V12.7701C103.085 12.589 102.984 12.4883 102.762 12.4883H100.226C99.6423 12.4883 99.2398 12.6091 98.9982 12.8305C98.7566 13.0519 98.656 13.4344 98.656 13.9779V18.3256C98.656 18.8691 98.7768 19.2515 98.9982 19.473C99.2398 19.6944 99.6423 19.8151 100.226 19.8151H101.233C102.461 19.8151 103.085 19.171 103.085 17.8828Z" fill="#F4F4F4"/>
<path d="M112.364 26.0349H110.07C109.687 26.0349 109.506 25.8738 109.506 25.5317V10.2339C109.506 9.87162 109.687 9.71059 110.07 9.71059H112.364C112.747 9.71059 112.928 9.89175 112.928 10.2339V11.0592H113.029C113.23 10.5962 113.572 10.2541 114.075 10.0326C114.579 9.81123 115.122 9.69046 115.666 9.69046H116.773C118.162 9.69046 119.209 10.0528 119.933 10.7573C120.638 11.4618 121 12.4883 121 13.8168V18.4665C121 19.795 120.638 20.8216 119.933 21.5261C119.229 22.2306 118.162 22.5929 116.773 22.5929H115.666C115.102 22.5929 114.579 22.4721 114.075 22.2507C113.572 22.0293 113.21 21.6871 113.029 21.2241H112.928V25.5115C112.928 25.8537 112.747 26.0349 112.364 26.0349ZM114.8 19.8151H115.988C116.572 19.8151 116.974 19.6944 117.216 19.473C117.457 19.2515 117.578 18.8691 117.578 18.3256V13.9779C117.578 13.4344 117.457 13.0519 117.216 12.8305C116.974 12.6091 116.551 12.4883 115.988 12.4883H114.8C113.552 12.4883 112.928 13.1324 112.928 14.4006V17.8828C112.928 19.171 113.552 19.8151 114.8 19.8151Z" fill="#F4F4F4"/>
<path d="M49.3783 5.66476H45.9362V7.33544H49.3783V5.66476Z" fill="#FFA521" stroke="#FCA318" stroke-width="1.43168" stroke-miterlimit="10"/>
<path d="M48.4891 8.21787V4.77588H46.8184V8.21787H48.4891Z" fill="#FFA521" stroke="#FCA318" stroke-width="1.43168" stroke-miterlimit="10"/>
</svg>
