<svg width="816" height="337" viewBox="0 0 816 337" fill="none" xmlns="http://www.w3.org/2000/svg">
<rect x="20.3903" y="275.549" width="10.1951" height="10.1951" fill="#FCA318"/>
<rect x="20.3903" y="275.549" width="10.1951" height="10.1951" fill="#FCA318"/>
<rect y="255.159" width="10.1951" height="10.1951" fill="#FCA318"/>
<rect x="20.3903" y="234.768" width="10.1951" height="10.1951" fill="#FCA318"/>
<rect x="20.3903" y="214.378" width="10.1951" height="10.1951" fill="#FCA318"/>
<rect x="20.3903" y="193.988" width="10.1951" height="10.1951" fill="#FCA318"/>
<rect y="173.598" width="10.1951" height="10.1951" fill="#FCA318"/>
<rect x="61.1708" y="214.378" width="10.1951" height="10.1951" fill="#FCA318"/>
<rect x="61.1708" y="193.988" width="10.1951" height="10.1951" fill="#FCA318"/>
<rect x="101.951" y="193.988" width="10.1951" height="10.1951" fill="#FCA318"/>
<rect x="163.122" y="193.988" width="10.1951" height="10.1951" fill="#FCA318"/>
<rect x="122.341" y="193.988" width="10.1951" height="10.1951" fill="#FCA318"/>
<rect x="61.1708" y="153.207" width="10.1951" height="10.1951" fill="#FCA318"/>
<rect x="101.951" y="153.207" width="10.1951" height="10.1951" fill="#FCA318"/>
<rect x="122.341" y="153.207" width="10.1951" height="10.1951" fill="#FCA318"/>
<rect x="163.122" y="153.207" width="10.1951" height="10.1951" fill="#FCA318"/>
<rect x="203.902" y="193.988" width="10.1951" height="10.1951" fill="#FCA318"/>
<rect x="183.512" y="244.963" width="10.1951" height="10.1951" transform="rotate(-90 183.512 244.963)" fill="#FCA318"/>
<rect x="203.902" y="115.825" width="10.1951" height="10.1951" fill="#FCA318"/>
<rect x="193.707" y="105.63" width="10.1951" height="10.1951" fill="#FCA318"/>
<rect x="183.512" y="95.435" width="10.1951" height="10.1951" fill="#FCA318"/>
<rect x="173.317" y="85.2398" width="10.1951" height="10.1951" fill="#FCA318"/>
<rect x="163.122" y="95.435" width="10.1951" height="10.1951" fill="#FCA318"/>
<rect x="203.902" y="153.207" width="10.1951" height="10.1951" fill="#FCA318"/>
<rect x="163.122" y="115.825" width="10.1951" height="10.1951" fill="#FCA318"/>
<rect x="132.537" y="163.402" width="10.1951" height="10.1951" fill="#FCA318"/>
<rect x="173.317" y="126.02" width="10.1951" height="10.1951" fill="#FCA318"/>
<rect x="173.317" y="163.402" width="10.1951" height="10.1951" fill="#FCA318"/>
<rect x="214.098" y="204.183" width="10.1951" height="10.1951" fill="#FCA318"/>
<rect x="214.098" y="126.02" width="10.1951" height="10.1951" fill="#FCA318"/>
<rect x="336.439" y="163.402" width="10.1951" height="10.1951" fill="#FCA318"/>
<rect x="367.024" y="193.988" width="10.1951" height="10.1951" fill="#FCA318"/>
<rect x="367.024" y="214.378" width="10.1951" height="10.1951" fill="#FCA318"/>
<rect x="662.683" y="163.402" width="10.1951" height="10.1951" fill="#FCA318"/>
<rect x="662.683" y="183.793" width="10.1951" height="10.1951" fill="#FCA318"/>
<rect x="662.683" y="193.988" width="10.1951" height="10.1951" fill="#FCA318"/>
<rect x="703.463" y="193.988" width="10.1951" height="10.1951" fill="#FCA318"/>
<rect x="662.683" y="204.183" width="10.1951" height="10.1951" fill="#FCA318"/>
<rect x="662.683" y="224.573" width="10.1951" height="10.1951" fill="#FCA318"/>
<rect x="774.829" y="183.793" width="10.1951" height="10.1951" fill="#FCA318"/>
<rect x="774.829" y="214.378" width="10.1951" height="10.1951" fill="#FCA318"/>
<rect x="774.829" y="153.207" width="10.1951" height="10.1951" fill="#FCA318"/>
<rect x="795.219" y="153.207" width="10.1951" height="10.1951" fill="#FCA318"/>
<rect x="805.415" y="153.207" width="10.1951" height="10.1951" fill="#FCA318"/>
<rect x="785.024" y="153.207" width="10.1951" height="10.1951" fill="#FCA318"/>
<rect x="662.683" y="143.012" width="10.1951" height="10.1951" fill="#FCA318"/>
<rect x="254.878" y="204.183" width="10.1951" height="10.1951" fill="#FCA318"/>
<rect x="275.268" y="204.183" width="10.1951" height="10.1951" fill="#FCA318"/>
<rect x="418" y="163.402" width="10.1951" height="10.1951" fill="#FCA318"/>
<rect x="581.122" y="163.402" width="10.1951" height="10.1951" fill="#FCA318"/>
<rect x="581.122" y="183.793" width="10.1951" height="10.1951" fill="#FCA318"/>
<rect x="744.244" y="163.402" width="10.1951" height="10.1951" fill="#FCA318"/>
<rect x="193.707" y="183.793" width="10.1951" height="10.1951" fill="#FCA318"/>
<rect x="173.317" y="255.159" width="10.1951" height="10.1951" transform="rotate(-90 173.317 255.159)" fill="#FCA318"/>
<rect x="163.122" y="244.963" width="10.1951" height="10.1951" transform="rotate(-90 163.122 244.963)" fill="#FCA318"/>
<rect x="163.122" y="265.354" width="10.1951" height="10.1951" transform="rotate(-90 163.122 265.354)" fill="#FCA318"/>
<rect x="183.512" y="265.354" width="10.1951" height="10.1951" transform="rotate(-90 183.512 265.354)" fill="#FCA318"/>
<rect x="193.707" y="275.549" width="10.1951" height="10.1951" transform="rotate(-90 193.707 275.549)" fill="#FCA318"/>
<rect x="234.488" y="275.549" width="10.1951" height="10.1951" transform="rotate(-90 234.488 275.549)" fill="#FCA318"/>
<rect x="203.902" y="306.134" width="10.1951" height="10.1951" transform="rotate(-90 203.902 306.134)" fill="#FCA318"/>
<rect x="224.293" y="306.134" width="10.1951" height="10.1951" transform="rotate(-90 224.293 306.134)" fill="#FCA318"/>
<rect x="183.512" y="285.744" width="10.1951" height="10.1951" transform="rotate(-90 183.512 285.744)" fill="#FCA318"/>
<rect x="203.902" y="285.744" width="10.1951" height="10.1951" transform="rotate(-90 203.902 285.744)" fill="#FCA318"/>
<rect x="244.683" y="285.744" width="10.1951" height="10.1951" transform="rotate(-90 244.683 285.744)" fill="#FCA318"/>
<rect x="234.488" y="224.573" width="10.1951" height="10.1951" fill="#FCA318"/>
<rect x="214.098" y="214.378" width="10.1951" height="10.1951" transform="rotate(-90 214.098 214.378)" fill="#FCA318"/>
<rect x="173.317" y="214.378" width="10.1951" height="10.1951" transform="rotate(-90 173.317 214.378)" fill="#FCA318"/>
<rect x="254.878" y="244.963" width="10.1951" height="10.1951" fill="#FCA318"/>
<rect x="265.073" y="234.768" width="10.1951" height="10.1951" fill="#FCA318"/>
<rect x="234.488" y="244.963" width="10.1951" height="10.1951" fill="#FCA318"/>
<rect x="244.683" y="255.159" width="10.1951" height="10.1951" fill="#FCA318"/>
<rect x="214.098" y="244.963" width="10.1951" height="10.1951" fill="#FCA318"/>
<rect x="224.293" y="275.549" width="10.1951" height="10.1951" fill="#FCA318"/>
<rect x="234.488" y="193.988" width="10.1951" height="10.1951" transform="rotate(-90 234.488 193.988)" fill="#FCA318"/>
<rect x="244.683" y="204.183" width="10.1951" height="10.1951" transform="rotate(-90 244.683 204.183)" fill="#FCA318"/>
<rect x="285.463" y="204.183" width="10.1951" height="10.1951" transform="rotate(-90 285.463 204.183)" fill="#FCA318"/>
<rect x="295.659" y="193.988" width="10.1951" height="10.1951" transform="rotate(-90 295.659 193.988)" fill="#FCA318"/>
<rect x="356.829" y="163.402" width="10.1951" height="10.1951" fill="#FCA318"/>
<rect x="346.634" y="173.598" width="10.1951" height="10.1951" fill="#FCA318"/>
<rect x="377.219" y="204.183" width="10.1951" height="10.1951" fill="#FCA318"/>
<rect x="418" y="204.183" width="10.1951" height="10.1951" fill="#FCA318"/>
<rect x="377.219" y="224.573" width="10.1951" height="10.1951" fill="#FCA318"/>
<rect x="397.61" y="265.354" width="10.1951" height="10.1951" fill="#FCA318"/>
<rect x="397.61" y="244.963" width="10.1951" height="10.1951" fill="#FCA318"/>
<rect x="418" y="285.744" width="10.1951" height="10.1951" fill="#FCA318"/>
<rect x="418" y="224.573" width="10.1951" height="10.1951" fill="#FCA318"/>
<rect x="418" y="265.354" width="10.1951" height="10.1951" fill="#FCA318"/>
<rect x="438.39" y="285.744" width="10.1951" height="10.1951" fill="#FCA318"/>
<rect x="438.39" y="244.963" width="10.1951" height="10.1951" fill="#FCA318"/>
<rect x="458.781" y="265.354" width="10.1951" height="10.1951" fill="#FCA318"/>
<rect x="458.781" y="224.573" width="10.1951" height="10.1951" fill="#FCA318"/>
<rect x="479.171" y="204.183" width="10.1951" height="10.1951" fill="#FCA318"/>
<rect x="458.781" y="183.793" width="10.1951" height="10.1951" fill="#FCA318"/>
<rect x="499.561" y="183.793" width="10.1951" height="10.1951" fill="#FCA318"/>
<rect x="387.415" y="224.573" width="10.1951" height="10.1951" fill="#FCA318"/>
<rect x="428.195" y="224.573" width="10.1951" height="10.1951" fill="#FCA318"/>
<rect x="428.195" y="265.354" width="10.1951" height="10.1951" fill="#FCA318"/>
<rect x="448.585" y="285.744" width="10.1951" height="10.1951" fill="#FCA318"/>
<rect x="448.585" y="244.963" width="10.1951" height="10.1951" fill="#FCA318"/>
<rect x="468.976" y="265.354" width="10.1951" height="10.1951" fill="#FCA318"/>
<rect x="468.976" y="224.573" width="10.1951" height="10.1951" fill="#FCA318"/>
<rect x="489.366" y="204.183" width="10.1951" height="10.1951" fill="#FCA318"/>
<rect x="468.976" y="183.793" width="10.1951" height="10.1951" fill="#FCA318"/>
<rect x="509.756" y="183.793" width="10.1951" height="10.1951" fill="#FCA318"/>
<rect x="530.146" y="163.402" width="10.1951" height="10.1951" fill="#FCA318"/>
<rect x="397.61" y="224.573" width="10.1951" height="10.1951" fill="#FCA318"/>
<rect x="418" y="244.963" width="10.1951" height="10.1951" fill="#FCA318"/>
<rect x="438.39" y="224.573" width="10.1951" height="10.1951" fill="#FCA318"/>
<rect x="438.39" y="265.354" width="10.1951" height="10.1951" fill="#FCA318"/>
<rect x="458.781" y="285.744" width="10.1951" height="10.1951" fill="#FCA318"/>
<rect x="458.781" y="244.963" width="10.1951" height="10.1951" fill="#FCA318"/>
<rect x="468.976" y="244.963" width="10.1951" height="10.1951" fill="#FCA318"/>
<rect x="479.171" y="244.963" width="10.1951" height="10.1951" fill="#FCA318"/>
<rect x="489.366" y="234.768" width="10.1951" height="10.1951" fill="#FCA318"/>
<rect x="479.171" y="224.573" width="10.1951" height="10.1951" fill="#FCA318"/>
<rect x="458.781" y="204.183" width="10.1951" height="10.1951" fill="#FCA318"/>
<rect x="499.561" y="204.183" width="10.1951" height="10.1951" fill="#FCA318"/>
<rect x="479.171" y="183.793" width="10.1951" height="10.1951" fill="#FCA318"/>
<rect x="519.951" y="183.793" width="10.1951" height="10.1951" fill="#FCA318"/>
<rect x="397.61" y="204.183" width="10.1951" height="10.1951" fill="#FCA318"/>
<rect x="438.39" y="204.183" width="10.1951" height="10.1951" fill="#FCA318"/>
<rect x="519.951" y="163.402" width="10.1951" height="10.1951" fill="#FCA318"/>
<rect x="540.342" y="143.012" width="10.1951" height="10.1951" fill="#FCA318"/>
<rect x="540.342" y="122.622" width="10.1951" height="10.1951" fill="#FCA318"/>
<rect x="581.122" y="143.012" width="10.1951" height="10.1951" fill="#FCA318"/>
<rect x="683.073" y="163.402" width="10.1951" height="10.1951" fill="#FCA318"/>
<rect x="683.073" y="183.793" width="10.1951" height="10.1951" fill="#FCA318"/>
<rect x="683.073" y="173.598" width="10.1951" height="10.1951" fill="#FCA318"/>
<rect x="683.073" y="204.183" width="10.1951" height="10.1951" fill="#FCA318"/>
<rect x="683.073" y="224.573" width="10.1951" height="10.1951" fill="#FCA318"/>
<rect x="795.219" y="183.793" width="10.1951" height="10.1951" fill="#FCA318"/>
<rect x="795.219" y="193.988" width="10.1951" height="10.1951" fill="#FCA318"/>
<rect x="795.219" y="204.183" width="10.1951" height="10.1951" fill="#FCA318"/>
<rect x="795.219" y="234.768" width="10.1951" height="10.1951" fill="#FCA318"/>
<rect x="805.415" y="204.183" width="10.1951" height="10.1951" fill="#FCA318"/>
<rect x="805.415" y="234.768" width="10.1951" height="10.1951" fill="#FCA318"/>
<rect x="805.415" y="295.939" width="10.1951" height="10.1951" fill="#FCA318"/>
<rect x="683.073" y="143.012" width="10.1951" height="10.1951" fill="#FCA318"/>
<rect x="275.268" y="183.793" width="10.1951" height="10.1951" fill="#FCA318"/>
<rect x="305.854" y="153.207" width="10.1951" height="10.1951" fill="#FCA318"/>
<rect x="336.439" y="122.622" width="10.1951" height="10.1951" fill="#FCA318"/>
<rect x="326.244" y="153.207" width="10.1951" height="10.1951" fill="#FCA318"/>
<rect x="316.049" y="122.622" width="10.1951" height="10.1951" fill="#FCA318"/>
<rect x="346.634" y="92.0366" width="10.1951" height="10.1951" fill="#FCA318"/>
<rect x="336.439" y="81.8415" width="10.1951" height="10.1951" fill="#FCA318"/>
<rect x="367.024" y="92.0366" width="10.1951" height="10.1951" fill="#FCA318"/>
<rect x="438.39" y="163.402" width="10.1951" height="10.1951" fill="#FCA318"/>
<rect x="418" y="183.793" width="10.1951" height="10.1951" fill="#FCA318"/>
<rect x="601.512" y="163.402" width="10.1951" height="10.1951" fill="#FCA318"/>
<rect x="601.512" y="183.793" width="10.1951" height="10.1951" fill="#FCA318"/>
<rect x="601.512" y="204.183" width="10.1951" height="10.1951" fill="#FCA318"/>
<rect x="601.512" y="224.573" width="10.1951" height="10.1951" fill="#FCA318"/>
<rect x="764.634" y="163.402" width="10.1951" height="10.1951" fill="#FCA318"/>
<rect x="214.098" y="163.402" width="10.1951" height="10.1951" fill="#FCA318"/>
<rect x="377.219" y="163.402" width="10.1951" height="10.1951" fill="#FCA318"/>
<rect x="540.342" y="163.402" width="10.1951" height="10.1951" fill="#FCA318"/>
<rect x="560.732" y="143.012" width="10.1951" height="10.1951" fill="#FCA318"/>
<rect x="560.732" y="122.622" width="10.1951" height="10.1951" fill="#FCA318"/>
<rect x="601.512" y="143.012" width="10.1951" height="10.1951" fill="#FCA318"/>
<rect x="703.463" y="163.402" width="10.1951" height="10.1951" fill="#FCA318"/>
<rect x="703.463" y="153.207" width="10.1951" height="10.1951" fill="#FCA318"/>
<rect x="754.439" y="153.207" width="10.1951" height="10.1951" fill="#FCA318"/>
<rect x="764.634" y="143.012" width="10.1951" height="10.1951" fill="#FCA318"/>
<rect x="764.634" y="173.598" width="10.1951" height="10.1951" fill="#FCA318"/>
<rect x="703.463" y="183.793" width="10.1951" height="10.1951" fill="#FCA318"/>
<rect x="703.463" y="204.183" width="10.1951" height="10.1951" fill="#FCA318"/>
<rect x="703.463" y="224.573" width="10.1951" height="10.1951" fill="#FCA318"/>
<rect x="815.61" y="183.793" width="10.1951" height="10.1951" fill="#FCA318"/>
<rect x="295.659" y="163.402" width="10.1951" height="10.1951" fill="#FCA318"/>
<rect x="326.244" y="132.817" width="10.1951" height="10.1951" fill="#FCA318"/>
<rect x="356.829" y="102.232" width="10.1951" height="10.1951" fill="#FCA318"/>
<rect x="367.024" y="112.427" width="10.1951" height="10.1951" fill="#FCA318"/>
<rect x="397.61" y="81.8415" width="10.1951" height="10.1951" fill="#FCA318"/>
<rect x="407.805" y="71.6463" width="10.1951" height="10.1951" fill="#FCA318"/>
<rect x="407.805" y="112.427" width="10.1951" height="10.1951" fill="#FCA318"/>
<rect x="397.61" y="122.622" width="10.1951" height="10.1951" fill="#FCA318"/>
<rect x="377.219" y="122.622" width="10.1951" height="10.1951" fill="#FCA318"/>
<rect x="407.805" y="92.0366" width="10.1951" height="10.1951" fill="#FCA318"/>
<rect x="418" y="81.8415" width="10.1951" height="10.1951" fill="#FCA318"/>
<rect x="418" y="122.622" width="10.1951" height="10.1951" fill="#FCA318"/>
<rect x="407.805" y="132.817" width="10.1951" height="10.1951" fill="#FCA318"/>
<rect x="407.805" y="153.207" width="10.1951" height="10.1951" fill="#FCA318"/>
<rect x="346.634" y="132.817" width="10.1951" height="10.1951" fill="#FCA318"/>
<rect x="356.829" y="143.012" width="10.1951" height="10.1951" fill="#FCA318"/>
<rect x="377.219" y="143.012" width="10.1951" height="10.1951" fill="#FCA318"/>
<rect x="377.219" y="183.793" width="10.1951" height="10.1951" fill="#FCA318"/>
<rect x="377.219" y="102.232" width="10.1951" height="10.1951" fill="#FCA318"/>
<rect x="377.219" y="61.4512" width="10.1951" height="10.1951" fill="#FCA318"/>
<rect x="387.415" y="143.012" width="10.1951" height="10.1951" fill="#FCA318"/>
<rect x="387.415" y="183.793" width="10.1951" height="10.1951" fill="#FCA318"/>
<rect x="428.195" y="143.012" width="10.1951" height="10.1951" fill="#FCA318"/>
<rect x="387.415" y="102.232" width="10.1951" height="10.1951" fill="#FCA318"/>
<rect x="387.415" y="61.4512" width="10.1951" height="10.1951" fill="#FCA318"/>
<rect x="397.61" y="143.012" width="10.1951" height="10.1951" fill="#FCA318"/>
<rect x="397.61" y="183.793" width="10.1951" height="10.1951" fill="#FCA318"/>
<rect x="438.39" y="143.012" width="10.1951" height="10.1951" fill="#FCA318"/>
<rect x="397.61" y="102.232" width="10.1951" height="10.1951" fill="#FCA318"/>
<rect x="397.61" y="61.4512" width="10.1951" height="10.1951" fill="#FCA318"/>
<rect x="367.024" y="153.207" width="10.1951" height="10.1951" fill="#FCA318"/>
<rect x="336.439" y="102.232" width="10.1951" height="10.1951" fill="#FCA318"/>
<rect x="367.024" y="71.6463" width="10.1951" height="10.1951" fill="#FCA318"/>
<rect x="356.829" y="61.4512" width="10.1951" height="10.1951" fill="#FCA318"/>
<rect x="458.781" y="163.402" width="10.1951" height="10.1951" fill="#FCA318"/>
<rect x="438.39" y="183.793" width="10.1951" height="10.1951" fill="#FCA318"/>
<rect x="621.902" y="163.402" width="10.1951" height="10.1951" fill="#FCA318"/>
<rect x="621.902" y="183.793" width="10.1951" height="10.1951" fill="#FCA318"/>
<rect x="621.902" y="204.183" width="10.1951" height="10.1951" fill="#FCA318"/>
<rect x="621.902" y="224.573" width="10.1951" height="10.1951" fill="#FCA318"/>
<rect x="621.902" y="234.768" width="10.1951" height="10.1951" fill="#FCA318"/>
<rect x="621.902" y="244.963" width="10.1951" height="10.1951" fill="#FCA318"/>
<rect x="652.488" y="244.963" width="10.1951" height="10.1951" fill="#FCA318"/>
<rect x="652.488" y="265.354" width="10.1951" height="10.1951" fill="#FCA318"/>
<rect x="652.488" y="275.549" width="10.1951" height="10.1951" fill="#FCA318"/>
<rect x="652.488" y="285.744" width="10.1951" height="10.1951" fill="#FCA318"/>
<rect x="683.073" y="244.963" width="10.1951" height="10.1951" fill="#FCA318"/>
<rect x="683.073" y="265.354" width="10.1951" height="10.1951" fill="#FCA318"/>
<rect x="734.049" y="183.793" width="10.1951" height="10.1951" fill="#FCA318"/>
<rect x="621.902" y="143.012" width="10.1951" height="10.1951" fill="#FCA318"/>
<rect x="785.024" y="163.402" width="10.1951" height="10.1951" fill="#FCA318"/>
<rect x="234.488" y="163.402" width="10.1951" height="10.1951" fill="#FCA318"/>
<rect x="397.61" y="163.402" width="10.1951" height="10.1951" fill="#FCA318"/>
<rect x="560.732" y="163.402" width="10.1951" height="10.1951" fill="#FCA318"/>
<rect x="723.854" y="163.402" width="10.1951" height="10.1951" fill="#FCA318"/>
<rect x="316.049" y="163.402" width="10.1951" height="10.1951" fill="#FCA318"/>
<rect x="642.293" y="163.402" width="10.1951" height="10.1951" fill="#FCA318"/>
<rect x="642.293" y="183.793" width="10.1951" height="10.1951" fill="#FCA318"/>
<rect x="642.293" y="204.183" width="10.1951" height="10.1951" fill="#FCA318"/>
<rect x="642.293" y="224.573" width="10.1951" height="10.1951" fill="#FCA318"/>
<rect x="754.439" y="183.793" width="10.1951" height="10.1951" fill="#FCA318"/>
<rect x="642.293" y="143.012" width="10.1951" height="10.1951" fill="#FCA318"/>
<rect x="805.415" y="163.402" width="10.1951" height="10.1951" fill="#FCA318"/>
<rect x="805.415" y="173.598" width="10.1951" height="10.1951" fill="#FCA318"/>
<rect x="183.512" y="173.598" width="10.1951" height="10.1951" fill="#FCA318"/>
<rect x="224.293" y="214.378" width="10.1951" height="10.1951" fill="#FCA318"/>
<rect x="265.073" y="214.378" width="10.1951" height="10.1951" fill="#FCA318"/>
<rect x="224.293" y="234.768" width="10.1951" height="10.1951" fill="#FCA318"/>
<rect x="224.293" y="255.159" width="10.1951" height="10.1951" fill="#FCA318"/>
<rect x="203.902" y="224.573" width="10.1951" height="10.1951" transform="rotate(-90 203.902 224.573)" fill="#FCA318"/>
<rect x="244.683" y="224.573" width="10.1951" height="10.1951" transform="rotate(-90 244.683 224.573)" fill="#FCA318"/>
<rect x="203.902" y="244.963" width="10.1951" height="10.1951" transform="rotate(-90 203.902 244.963)" fill="#FCA318"/>
<rect x="203.902" y="265.354" width="10.1951" height="10.1951" transform="rotate(-90 203.902 265.354)" fill="#FCA318"/>
<rect x="214.098" y="295.939" width="10.1951" height="10.1951" transform="rotate(-90 214.098 295.939)" fill="#FCA318"/>
<rect x="163.122" y="224.573" width="10.1951" height="10.1951" transform="rotate(-90 163.122 224.573)" fill="#FCA318"/>
<rect x="142.732" y="224.573" width="10.1951" height="10.1951" transform="rotate(-90 142.732 224.573)" fill="#FCA318"/>
<rect x="244.683" y="234.768" width="10.1951" height="10.1951" fill="#FCA318"/>
<rect x="224.293" y="204.183" width="10.1951" height="10.1951" transform="rotate(-90 224.293 204.183)" fill="#FCA318"/>
<rect x="265.073" y="204.183" width="10.1951" height="10.1951" transform="rotate(-90 265.073 204.183)" fill="#FCA318"/>
<rect x="183.512" y="214.378" width="10.1951" height="10.1951" fill="#FCA318"/>
<rect x="346.634" y="153.207" width="10.1951" height="10.1951" fill="#FCA318"/>
<rect x="672.878" y="163.402" width="10.1951" height="10.1951" fill="#FCA318"/>
<rect x="672.878" y="183.793" width="10.1951" height="10.1951" fill="#FCA318"/>
<rect x="672.878" y="173.598" width="10.1951" height="10.1951" fill="#FCA318"/>
<rect x="672.878" y="193.988" width="10.1951" height="10.1951" fill="#FCA318"/>
<rect x="672.878" y="214.378" width="10.1951" height="10.1951" fill="#FCA318"/>
<rect x="672.878" y="234.768" width="10.1951" height="10.1951" fill="#FCA318"/>
<rect x="672.878" y="255.159" width="10.1951" height="10.1951" fill="#FCA318"/>
<rect x="713.658" y="193.988" width="10.1951" height="10.1951" fill="#FCA318"/>
<rect x="734.049" y="193.988" width="10.1951" height="10.1951" fill="#FCA318"/>
<rect x="672.878" y="204.183" width="10.1951" height="10.1951" fill="#FCA318"/>
<rect x="672.878" y="224.573" width="10.1951" height="10.1951" fill="#FCA318"/>
<rect x="785.024" y="183.793" width="10.1951" height="10.1951" fill="#FCA318"/>
<rect x="785.024" y="193.988" width="10.1951" height="10.1951" fill="#FCA318"/>
<rect x="785.024" y="204.183" width="10.1951" height="10.1951" fill="#FCA318"/>
<rect x="785.024" y="224.573" width="10.1951" height="10.1951" fill="#FCA318"/>
<rect x="795.219" y="224.573" width="10.1951" height="10.1951" fill="#FCA318"/>
<rect x="795.219" y="255.159" width="10.1951" height="10.1951" fill="#FCA318"/>
<rect x="795.219" y="265.354" width="10.1951" height="10.1951" fill="#FCA318"/>
<rect x="795.219" y="275.549" width="10.1951" height="10.1951" fill="#FCA318"/>
<rect x="805.415" y="224.573" width="10.1951" height="10.1951" fill="#FCA318"/>
<rect x="805.415" y="285.744" width="10.1951" height="10.1951" fill="#FCA318"/>
<rect x="805.415" y="255.159" width="10.1951" height="10.1951" fill="#FCA318"/>
<rect x="805.415" y="316.329" width="10.1951" height="10.1951" fill="#FCA318"/>
<rect x="805.415" y="265.354" width="10.1951" height="10.1951" fill="#FCA318"/>
<rect x="805.415" y="326.524" width="10.1951" height="10.1951" fill="#FCA318"/>
<rect x="795.219" y="214.378" width="10.1951" height="10.1951" fill="#FCA318"/>
<rect x="795.219" y="244.963" width="10.1951" height="10.1951" fill="#FCA318"/>
<rect x="805.415" y="214.378" width="10.1951" height="10.1951" fill="#FCA318"/>
<rect x="805.415" y="244.963" width="10.1951" height="10.1951" fill="#FCA318"/>
<rect x="805.415" y="306.134" width="10.1951" height="10.1951" fill="#FCA318"/>
<rect x="672.878" y="143.012" width="10.1951" height="10.1951" fill="#FCA318"/>
<rect x="265.073" y="173.598" width="10.1951" height="10.1951" fill="#FCA318"/>
<rect x="428.195" y="173.598" width="10.1951" height="10.1951" fill="#FCA318"/>
<rect x="591.317" y="163.402" width="10.1951" height="10.1951" fill="#FCA318"/>
<rect x="591.317" y="183.793" width="10.1951" height="10.1951" fill="#FCA318"/>
<rect x="591.317" y="193.988" width="10.1951" height="10.1951" fill="#FCA318"/>
<rect x="591.317" y="204.183" width="10.1951" height="10.1951" fill="#FCA318"/>
<rect x="754.439" y="163.402" width="10.1951" height="10.1951" fill="#FCA318"/>
<rect x="203.902" y="173.598" width="10.1951" height="10.1951" fill="#FCA318"/>
<rect x="367.024" y="173.598" width="10.1951" height="10.1951" fill="#FCA318"/>
<rect x="356.829" y="183.793" width="10.1951" height="10.1951" fill="#FCA318"/>
<rect x="387.415" y="214.378" width="10.1951" height="10.1951" fill="#FCA318"/>
<rect x="407.805" y="234.768" width="10.1951" height="10.1951" fill="#FCA318"/>
<rect x="428.195" y="214.378" width="10.1951" height="10.1951" fill="#FCA318"/>
<rect x="428.195" y="255.159" width="10.1951" height="10.1951" fill="#FCA318"/>
<rect x="448.585" y="275.549" width="10.1951" height="10.1951" fill="#FCA318"/>
<rect x="448.585" y="234.768" width="10.1951" height="10.1951" fill="#FCA318"/>
<rect x="468.976" y="255.159" width="10.1951" height="10.1951" fill="#FCA318"/>
<rect x="468.976" y="214.378" width="10.1951" height="10.1951" fill="#FCA318"/>
<rect x="448.585" y="193.988" width="10.1951" height="10.1951" fill="#FCA318"/>
<rect x="489.366" y="193.988" width="10.1951" height="10.1951" fill="#FCA318"/>
<rect x="387.415" y="234.768" width="10.1951" height="10.1951" fill="#FCA318"/>
<rect x="407.805" y="275.549" width="10.1951" height="10.1951" fill="#FCA318"/>
<rect x="407.805" y="255.159" width="10.1951" height="10.1951" fill="#FCA318"/>
<rect x="428.195" y="295.939" width="10.1951" height="10.1951" fill="#FCA318"/>
<rect x="428.195" y="234.768" width="10.1951" height="10.1951" fill="#FCA318"/>
<rect x="428.195" y="275.549" width="10.1951" height="10.1951" fill="#FCA318"/>
<rect x="448.585" y="295.939" width="10.1951" height="10.1951" fill="#FCA318"/>
<rect x="448.585" y="255.159" width="10.1951" height="10.1951" fill="#FCA318"/>
<rect x="468.976" y="275.549" width="10.1951" height="10.1951" fill="#FCA318"/>
<rect x="468.976" y="234.768" width="10.1951" height="10.1951" fill="#FCA318"/>
<rect x="489.366" y="214.378" width="10.1951" height="10.1951" fill="#FCA318"/>
<rect x="468.976" y="193.988" width="10.1951" height="10.1951" fill="#FCA318"/>
<rect x="509.756" y="193.988" width="10.1951" height="10.1951" fill="#FCA318"/>
<rect x="509.756" y="204.183" width="10.1951" height="10.1951" fill="#FCA318"/>
<rect x="530.146" y="173.598" width="10.1951" height="10.1951" fill="#FCA318"/>
<rect x="550.537" y="153.207" width="10.1951" height="10.1951" fill="#FCA318"/>
<rect x="550.537" y="173.598" width="10.1951" height="10.1951" fill="#FCA318"/>
<rect x="570.927" y="153.207" width="10.1951" height="10.1951" fill="#FCA318"/>
<rect x="570.927" y="183.793" width="10.1951" height="10.1951" fill="#FCA318"/>
<rect x="591.317" y="153.207" width="10.1951" height="10.1951" fill="#FCA318"/>
<rect x="591.317" y="173.598" width="10.1951" height="10.1951" fill="#FCA318"/>
<rect x="611.707" y="153.207" width="10.1951" height="10.1951" fill="#FCA318"/>
<rect x="611.707" y="122.622" width="10.1951" height="10.1951" fill="#FCA318"/>
<rect x="632.098" y="122.622" width="10.1951" height="10.1951" fill="#FCA318"/>
<rect x="591.317" y="122.622" width="10.1951" height="10.1951" fill="#FCA318"/>
<rect x="581.122" y="122.622" width="10.1951" height="10.1951" fill="#FCA318"/>
<rect x="611.707" y="92.0366" width="10.1951" height="10.1951" fill="#FCA318"/>
<rect x="632.098" y="92.0366" width="10.1951" height="10.1951" fill="#FCA318"/>
<rect x="591.317" y="92.0366" width="10.1951" height="10.1951" fill="#FCA318"/>
<rect x="570.927" y="92.0366" width="10.1951" height="10.1951" fill="#FCA318"/>
<rect x="570.927" y="122.622" width="10.1951" height="10.1951" fill="#FCA318"/>
<rect x="407.805" y="214.378" width="10.1951" height="10.1951" fill="#FCA318"/>
<rect x="448.585" y="214.378" width="10.1951" height="10.1951" fill="#FCA318"/>
<rect x="530.146" y="163.402" width="10.1951" height="10.1951" fill="#FCA318"/>
<rect x="550.537" y="143.012" width="10.1951" height="10.1951" fill="#FCA318"/>
<rect x="550.537" y="122.622" width="10.1951" height="10.1951" fill="#FCA318"/>
<rect x="570.927" y="143.012" width="10.1951" height="10.1951" fill="#FCA318"/>
<rect x="570.927" y="173.598" width="10.1951" height="10.1951" fill="#FCA318"/>
<rect x="591.317" y="143.012" width="10.1951" height="10.1951" fill="#FCA318"/>
<rect x="611.707" y="143.012" width="10.1951" height="10.1951" fill="#FCA318"/>
<rect x="611.707" y="112.427" width="10.1951" height="10.1951" fill="#FCA318"/>
<rect x="632.098" y="112.427" width="10.1951" height="10.1951" fill="#FCA318"/>
<rect x="591.317" y="112.427" width="10.1951" height="10.1951" fill="#FCA318"/>
<rect x="611.707" y="81.8415" width="10.1951" height="10.1951" fill="#FCA318"/>
<rect x="632.098" y="81.8415" width="10.1951" height="10.1951" fill="#FCA318"/>
<rect x="662.683" y="102.232" width="10.1951" height="10.1951" fill="#FCA318"/>
<rect x="591.317" y="81.8415" width="10.1951" height="10.1951" fill="#FCA318"/>
<rect x="570.927" y="81.8415" width="10.1951" height="10.1951" fill="#FCA318"/>
<rect x="570.927" y="112.427" width="10.1951" height="10.1951" fill="#FCA318"/>
<rect x="581.122" y="81.8415" width="10.1951" height="10.1951" fill="#FCA318"/>
<rect x="560.732" y="81.8415" width="10.1951" height="10.1951" fill="#FCA318"/>
<rect x="611.707" y="61.4512" width="10.1951" height="10.1951" fill="#FCA318"/>
<rect x="642.293" y="81.8415" width="10.1951" height="10.1951" fill="#FCA318"/>
<rect x="632.098" y="61.4512" width="10.1951" height="10.1951" fill="#FCA318"/>
<rect x="591.317" y="61.4512" width="10.1951" height="10.1951" fill="#FCA318"/>
<rect x="581.122" y="61.4512" width="10.1951" height="10.1951" fill="#FCA318"/>
<rect x="591.317" y="51.2561" width="10.1951" height="10.1951" fill="#FCA318"/>
<rect x="693.268" y="163.402" width="10.1951" height="10.1951" fill="#FCA318"/>
<rect x="693.268" y="153.207" width="10.1951" height="10.1951" fill="#FCA318"/>
<rect x="744.244" y="153.207" width="10.1951" height="10.1951" fill="#FCA318"/>
<rect x="754.439" y="173.598" width="10.1951" height="10.1951" fill="#FCA318"/>
<rect x="693.268" y="183.793" width="10.1951" height="10.1951" fill="#FCA318"/>
<rect x="693.268" y="173.598" width="10.1951" height="10.1951" fill="#FCA318"/>
<rect x="693.268" y="204.183" width="10.1951" height="10.1951" fill="#FCA318"/>
<rect x="693.268" y="224.573" width="10.1951" height="10.1951" fill="#FCA318"/>
<rect x="805.415" y="183.793" width="10.1951" height="10.1951" fill="#FCA318"/>
<rect x="285.463" y="173.598" width="10.1951" height="10.1951" fill="#FCA318"/>
<rect x="316.049" y="143.012" width="10.1951" height="10.1951" fill="#FCA318"/>
<rect x="346.634" y="112.427" width="10.1951" height="10.1951" fill="#FCA318"/>
<rect x="356.829" y="122.622" width="10.1951" height="10.1951" fill="#FCA318"/>
<rect x="367.024" y="132.817" width="10.1951" height="10.1951" fill="#FCA318"/>
<rect x="387.415" y="132.817" width="10.1951" height="10.1951" fill="#FCA318"/>
<rect x="418" y="102.232" width="10.1951" height="10.1951" fill="#FCA318"/>
<rect x="438.39" y="122.622" width="10.1951" height="10.1951" fill="#FCA318"/>
<rect x="428.195" y="92.0366" width="10.1951" height="10.1951" fill="#FCA318"/>
<rect x="428.195" y="102.232" width="10.1951" height="10.1951" fill="#FCA318"/>
<rect x="428.195" y="112.427" width="10.1951" height="10.1951" fill="#FCA318"/>
<rect x="448.585" y="132.817" width="10.1951" height="10.1951" fill="#FCA318"/>
<rect x="428.195" y="132.817" width="10.1951" height="10.1951" fill="#FCA318"/>
<rect x="418" y="143.012" width="10.1951" height="10.1951" fill="#FCA318"/>
<rect x="387.415" y="92.0366" width="10.1951" height="10.1951" fill="#FCA318"/>
<rect x="387.415" y="51.2561" width="10.1951" height="10.1951" fill="#FCA318"/>
<rect x="387.415" y="153.207" width="10.1951" height="10.1951" fill="#FCA318"/>
<rect x="387.415" y="193.988" width="10.1951" height="10.1951" fill="#FCA318"/>
<rect x="407.805" y="193.988" width="10.1951" height="10.1951" fill="#FCA318"/>
<rect x="428.195" y="153.207" width="10.1951" height="10.1951" fill="#FCA318"/>
<rect x="387.415" y="112.427" width="10.1951" height="10.1951" fill="#FCA318"/>
<rect x="387.415" y="71.6463" width="10.1951" height="10.1951" fill="#FCA318"/>
<rect x="336.439" y="143.012" width="10.1951" height="10.1951" fill="#FCA318"/>
<rect x="326.244" y="112.427" width="10.1951" height="10.1951" fill="#FCA318"/>
<rect x="356.829" y="81.8415" width="10.1951" height="10.1951" fill="#FCA318"/>
<rect x="346.634" y="71.6463" width="10.1951" height="10.1951" fill="#FCA318"/>
<rect x="377.219" y="81.8415" width="10.1951" height="10.1951" fill="#FCA318"/>
<rect x="448.585" y="163.402" width="10.1951" height="10.1951" fill="#FCA318"/>
<rect x="428.195" y="183.793" width="10.1951" height="10.1951" fill="#FCA318"/>
<rect x="448.585" y="153.207" width="10.1951" height="10.1951" fill="#FCA318"/>
<rect x="448.585" y="173.598" width="10.1951" height="10.1951" fill="#FCA318"/>
<rect x="428.195" y="193.988" width="10.1951" height="10.1951" fill="#FCA318"/>
<rect x="611.707" y="163.402" width="10.1951" height="10.1951" fill="#FCA318"/>
<rect x="611.707" y="173.598" width="10.1951" height="10.1951" fill="#FCA318"/>
<rect x="611.707" y="183.793" width="10.1951" height="10.1951" fill="#FCA318"/>
<rect x="611.707" y="193.988" width="10.1951" height="10.1951" fill="#FCA318"/>
<rect x="611.707" y="204.183" width="10.1951" height="10.1951" fill="#FCA318"/>
<rect x="611.707" y="224.573" width="10.1951" height="10.1951" fill="#FCA318"/>
<rect x="611.707" y="234.768" width="10.1951" height="10.1951" fill="#FCA318"/>
<rect x="611.707" y="244.963" width="10.1951" height="10.1951" fill="#FCA318"/>
<rect x="642.293" y="244.963" width="10.1951" height="10.1951" fill="#FCA318"/>
<rect x="642.293" y="265.354" width="10.1951" height="10.1951" fill="#FCA318"/>
<rect x="672.878" y="244.963" width="10.1951" height="10.1951" fill="#FCA318"/>
<rect x="672.878" y="265.354" width="10.1951" height="10.1951" fill="#FCA318"/>
<rect x="672.878" y="275.549" width="10.1951" height="10.1951" fill="#FCA318"/>
<rect x="672.878" y="285.744" width="10.1951" height="10.1951" fill="#FCA318"/>
<rect x="723.854" y="183.793" width="10.1951" height="10.1951" fill="#FCA318"/>
<rect x="723.854" y="204.183" width="10.1951" height="10.1951" fill="#FCA318"/>
<rect x="774.829" y="163.402" width="10.1951" height="10.1951" fill="#FCA318"/>
<rect x="774.829" y="193.988" width="10.1951" height="10.1951" fill="#FCA318"/>
<rect x="774.829" y="132.817" width="10.1951" height="10.1951" fill="#FCA318"/>
<rect x="795.219" y="132.817" width="10.1951" height="10.1951" fill="#FCA318"/>
<rect x="805.415" y="132.817" width="10.1951" height="10.1951" fill="#FCA318"/>
<rect x="774.829" y="173.598" width="10.1951" height="10.1951" fill="#FCA318"/>
<rect x="774.829" y="204.183" width="10.1951" height="10.1951" fill="#FCA318"/>
<rect x="774.829" y="143.012" width="10.1951" height="10.1951" fill="#FCA318"/>
<rect x="774.829" y="122.622" width="10.1951" height="10.1951" fill="#FCA318"/>
<rect x="795.219" y="143.012" width="10.1951" height="10.1951" fill="#FCA318"/>
<rect x="805.415" y="143.012" width="10.1951" height="10.1951" fill="#FCA318"/>
<rect x="795.219" y="122.622" width="10.1951" height="10.1951" fill="#FCA318"/>
<rect x="795.219" y="112.427" width="10.1951" height="10.1951" fill="#FCA318"/>
<rect x="795.219" y="102.232" width="10.1951" height="10.1951" fill="#FCA318"/>
<rect x="805.415" y="93.1694" width="10.1951" height="10.1951" fill="#FCA318"/>
<rect x="805.415" y="82.9742" width="10.1951" height="10.1951" fill="#FCA318"/>
<rect x="805.415" y="72.7791" width="10.1951" height="10.1951" fill="#FCA318"/>
<rect x="805.415" y="62.584" width="10.1951" height="10.1951" fill="#FCA318"/>
<rect x="805.415" y="52.3889" width="10.1951" height="10.1951" fill="#FCA318"/>
<rect x="805.415" y="21.8035" width="10.1951" height="10.1951" fill="#FCA318"/>
<rect x="805.415" y="42.1938" width="10.1951" height="10.1951" fill="#FCA318"/>
<rect x="805.415" y="11.6084" width="10.1951" height="10.1951" fill="#FCA318"/>
<rect x="805.415" y="103.365" width="10.1951" height="10.1951" fill="#FCA318"/>
<rect x="805.415" y="122.622" width="10.1951" height="10.1951" fill="#FCA318"/>
<rect x="785.024" y="143.012" width="10.1951" height="10.1951" fill="#FCA318"/>
<rect x="785.024" y="122.622" width="10.1951" height="10.1951" fill="#FCA318"/>
<rect x="785.024" y="112.427" width="10.1951" height="10.1951" fill="#FCA318"/>
<rect x="785.024" y="102.232" width="10.1951" height="10.1951" fill="#FCA318"/>
<rect x="795.219" y="93.1694" width="10.1951" height="10.1951" fill="#FCA318"/>
<rect x="795.219" y="82.9742" width="10.1951" height="10.1951" fill="#FCA318"/>
<rect x="795.219" y="72.7791" width="10.1951" height="10.1951" fill="#FCA318"/>
<rect x="795.219" y="62.584" width="10.1951" height="10.1951" fill="#FCA318"/>
<rect x="795.219" y="52.3889" width="10.1951" height="10.1951" fill="#FCA318"/>
<rect x="224.293" y="173.598" width="10.1951" height="10.1951" fill="#FCA318"/>
<rect x="387.415" y="173.598" width="10.1951" height="10.1951" fill="#FCA318"/>
<rect x="550.537" y="163.402" width="10.1951" height="10.1951" fill="#FCA318"/>
<rect x="713.658" y="163.402" width="10.1951" height="10.1951" fill="#FCA318"/>
<rect x="713.658" y="173.598" width="10.1951" height="10.1951" fill="#FCA318"/>
<rect x="713.658" y="183.793" width="10.1951" height="10.1951" fill="#FCA318"/>
<rect x="713.658" y="204.183" width="10.1951" height="10.1951" fill="#FCA318"/>
<rect x="713.658" y="224.573" width="10.1951" height="10.1951" fill="#FCA318"/>
<rect x="305.854" y="173.598" width="10.1951" height="10.1951" fill="#FCA318"/>
<rect x="468.976" y="163.402" width="10.1951" height="10.1951" fill="#FCA318"/>
<rect x="468.976" y="173.598" width="10.1951" height="10.1951" fill="#FCA318"/>
<rect x="489.366" y="173.598" width="10.1951" height="10.1951" fill="#FCA318"/>
<rect x="509.756" y="173.598" width="10.1951" height="10.1951" fill="#FCA318"/>
<rect x="530.146" y="153.207" width="10.1951" height="10.1951" fill="#FCA318"/>
<rect x="550.537" y="132.817" width="10.1951" height="10.1951" fill="#FCA318"/>
<rect x="550.537" y="112.427" width="10.1951" height="10.1951" fill="#FCA318"/>
<rect x="570.927" y="132.817" width="10.1951" height="10.1951" fill="#FCA318"/>
<rect x="591.317" y="132.817" width="10.1951" height="10.1951" fill="#FCA318"/>
<rect x="611.707" y="132.817" width="10.1951" height="10.1951" fill="#FCA318"/>
<rect x="652.488" y="132.817" width="10.1951" height="10.1951" fill="#FCA318"/>
<rect x="652.488" y="153.207" width="10.1951" height="10.1951" fill="#FCA318"/>
<rect x="632.098" y="132.817" width="10.1951" height="10.1951" fill="#FCA318"/>
<rect x="632.098" y="153.207" width="10.1951" height="10.1951" fill="#FCA318"/>
<rect x="621.902" y="153.207" width="10.1951" height="10.1951" fill="#FCA318"/>
<rect x="672.878" y="132.817" width="10.1951" height="10.1951" fill="#FCA318"/>
<rect x="672.878" y="153.207" width="10.1951" height="10.1951" fill="#FCA318"/>
<rect x="611.707" y="102.232" width="10.1951" height="10.1951" fill="#FCA318"/>
<rect x="632.098" y="102.232" width="10.1951" height="10.1951" fill="#FCA318"/>
<rect x="642.293" y="102.232" width="10.1951" height="10.1951" fill="#FCA318"/>
<rect x="591.317" y="102.232" width="10.1951" height="10.1951" fill="#FCA318"/>
<rect x="621.902" y="102.232" width="10.1951" height="10.1951" fill="#FCA318"/>
<rect x="621.902" y="122.622" width="10.1951" height="10.1951" fill="#FCA318"/>
<rect x="621.902" y="81.8415" width="10.1951" height="10.1951" fill="#FCA318"/>
<rect x="621.902" y="61.4512" width="10.1951" height="10.1951" fill="#FCA318"/>
<rect x="621.902" y="71.6463" width="10.1951" height="10.1951" fill="#FCA318"/>
<rect x="652.488" y="92.0366" width="10.1951" height="10.1951" fill="#FCA318"/>
<rect x="652.488" y="102.232" width="10.1951" height="10.1951" fill="#FCA318"/>
<rect x="652.488" y="112.427" width="10.1951" height="10.1951" fill="#FCA318"/>
<rect x="652.488" y="122.622" width="10.1951" height="10.1951" fill="#FCA318"/>
<rect x="642.293" y="122.622" width="10.1951" height="10.1951" fill="#FCA318"/>
<rect x="662.683" y="112.427" width="10.1951" height="10.1951" fill="#FCA318"/>
<rect x="662.683" y="122.622" width="10.1951" height="10.1951" fill="#FCA318"/>
<rect x="672.878" y="122.622" width="10.1951" height="10.1951" fill="#FCA318"/>
<rect x="560.732" y="102.232" width="10.1951" height="10.1951" fill="#FCA318"/>
<rect x="581.122" y="102.232" width="10.1951" height="10.1951" fill="#FCA318"/>
<rect x="601.512" y="102.232" width="10.1951" height="10.1951" fill="#FCA318"/>
<rect x="601.512" y="122.622" width="10.1951" height="10.1951" fill="#FCA318"/>
<rect x="601.512" y="81.8415" width="10.1951" height="10.1951" fill="#FCA318"/>
<rect x="601.512" y="61.4512" width="10.1951" height="10.1951" fill="#FCA318"/>
<rect x="550.537" y="102.232" width="10.1951" height="10.1951" fill="#FCA318"/>
<rect x="611.707" y="71.6463" width="10.1951" height="10.1951" fill="#FCA318"/>
<rect x="632.098" y="71.6463" width="10.1951" height="10.1951" fill="#FCA318"/>
<rect x="591.317" y="71.6463" width="10.1951" height="10.1951" fill="#FCA318"/>
<rect x="570.927" y="71.6463" width="10.1951" height="10.1951" fill="#FCA318"/>
<rect x="611.707" y="51.2561" width="10.1951" height="10.1951" fill="#FCA318"/>
<rect x="632.098" y="163.402" width="10.1951" height="10.1951" fill="#FCA318"/>
<rect x="632.098" y="173.598" width="10.1951" height="10.1951" fill="#FCA318"/>
<rect x="632.098" y="183.793" width="10.1951" height="10.1951" fill="#FCA318"/>
<rect x="632.098" y="193.988" width="10.1951" height="10.1951" fill="#FCA318"/>
<rect x="632.098" y="214.378" width="10.1951" height="10.1951" fill="#FCA318"/>
<rect x="611.707" y="214.378" width="10.1951" height="10.1951" fill="#FCA318"/>
<rect x="632.098" y="204.183" width="10.1951" height="10.1951" fill="#FCA318"/>
<rect x="632.098" y="224.573" width="10.1951" height="10.1951" fill="#FCA318"/>
<rect x="632.098" y="255.159" width="10.1951" height="10.1951" fill="#FCA318"/>
<rect x="632.098" y="234.768" width="10.1951" height="10.1951" fill="#FCA318"/>
<rect x="632.098" y="244.963" width="10.1951" height="10.1951" fill="#FCA318"/>
<rect x="632.098" y="275.549" width="10.1951" height="10.1951" fill="#FCA318"/>
<rect x="632.098" y="265.354" width="10.1951" height="10.1951" fill="#FCA318"/>
<rect x="662.683" y="244.963" width="10.1951" height="10.1951" fill="#FCA318"/>
<rect x="662.683" y="265.354" width="10.1951" height="10.1951" fill="#FCA318"/>
<rect x="662.683" y="275.549" width="10.1951" height="10.1951" fill="#FCA318"/>
<rect x="662.683" y="285.744" width="10.1951" height="10.1951" fill="#FCA318"/>
<rect x="693.268" y="244.963" width="10.1951" height="10.1951" fill="#FCA318"/>
<rect x="702.331" y="234.768" width="10.1951" height="10.1951" fill="#FCA318"/>
<rect x="692.135" y="234.768" width="10.1951" height="10.1951" fill="#FCA318"/>
<rect x="692.135" y="255.159" width="10.1951" height="10.1951" fill="#FCA318"/>
<rect x="702.331" y="244.963" width="10.1951" height="10.1951" fill="#FCA318"/>
<rect x="744.244" y="183.793" width="10.1951" height="10.1951" fill="#FCA318"/>
<rect x="632.098" y="143.012" width="10.1951" height="10.1951" fill="#FCA318"/>
<rect x="795.219" y="163.402" width="10.1951" height="10.1951" fill="#FCA318"/>
<rect x="795.219" y="173.598" width="10.1951" height="10.1951" fill="#FCA318"/>
<rect x="244.683" y="173.598" width="10.1951" height="10.1951" fill="#FCA318"/>
<rect x="407.805" y="173.598" width="10.1951" height="10.1951" fill="#FCA318"/>
<rect x="570.927" y="163.402" width="10.1951" height="10.1951" fill="#FCA318"/>
<rect x="734.049" y="163.402" width="10.1951" height="10.1951" fill="#FCA318"/>
<rect x="734.049" y="173.598" width="10.1951" height="10.1951" fill="#FCA318"/>
<rect x="326.244" y="173.598" width="10.1951" height="10.1951" fill="#FCA318"/>
<rect x="652.488" y="163.402" width="10.1951" height="10.1951" fill="#FCA318"/>
<rect x="652.488" y="173.598" width="10.1951" height="10.1951" fill="#FCA318"/>
<rect x="652.488" y="183.793" width="10.1951" height="10.1951" fill="#FCA318"/>
<rect x="652.488" y="193.988" width="10.1951" height="10.1951" fill="#FCA318"/>
<rect x="652.488" y="214.378" width="10.1951" height="10.1951" fill="#FCA318"/>
<rect x="652.488" y="234.768" width="10.1951" height="10.1951" fill="#FCA318"/>
<rect x="652.488" y="255.159" width="10.1951" height="10.1951" fill="#FCA318"/>
<rect x="693.268" y="193.988" width="10.1951" height="10.1951" fill="#FCA318"/>
<rect x="693.268" y="214.378" width="10.1951" height="10.1951" fill="#FCA318"/>
<rect x="713.658" y="214.378" width="10.1951" height="10.1951" fill="#FCA318"/>
<rect x="652.488" y="204.183" width="10.1951" height="10.1951" fill="#FCA318"/>
<rect x="652.488" y="224.573" width="10.1951" height="10.1951" fill="#FCA318"/>
<rect x="764.634" y="183.793" width="10.1951" height="10.1951" fill="#FCA318"/>
<rect x="652.488" y="143.012" width="10.1951" height="10.1951" fill="#FCA318"/>
<rect x="814.477" y="163.402" width="10.1951" height="10.1951" fill="#FCA318"/>
<rect x="40.7805" y="132.817" width="10.1951" height="10.1951" fill="#FCA318"/>
<rect x="61.1708" y="173.598" width="10.1951" height="10.1951" fill="#FCA318"/>
<rect x="101.951" y="173.598" width="10.1951" height="10.1951" fill="#FCA318"/>
<rect x="163.122" y="173.598" width="10.1951" height="10.1951" fill="#FCA318"/>
<rect x="203.902" y="136.215" width="10.1951" height="10.1951" fill="#FCA318"/>
<rect x="122.341" y="173.598" width="10.1951" height="10.1951" fill="#FCA318"/>
<rect x="163.122" y="136.215" width="10.1951" height="10.1951" fill="#FCA318"/>
<rect x="142.732" y="173.598" width="10.1951" height="10.1951" fill="#FCA318"/>
<rect x="183.512" y="136.215" width="10.1951" height="10.1951" fill="#FCA318"/>
<rect x="142.732" y="132.817" width="10.1951" height="10.1951" fill="#FCA318"/>
<rect x="142.732" y="112.427" width="10.1951" height="10.1951" fill="#FCA318"/>
<rect x="132.537" y="122.622" width="10.1951" height="10.1951" fill="#FCA318"/>
<rect x="122.341" y="132.817" width="10.1951" height="10.1951" fill="#FCA318"/>
<rect x="61.1708" y="132.817" width="10.1951" height="10.1951" fill="#FCA318"/>
<rect x="61.1708" y="112.427" width="10.1951" height="10.1951" fill="#FCA318"/>
<rect x="81.561" y="112.427" width="10.1951" height="10.1951" fill="#FCA318"/>
<rect x="81.561" y="92.0366" width="10.1951" height="10.1951" fill="#FCA318"/>
<rect x="81.561" y="71.6463" width="10.1951" height="10.1951" fill="#FCA318"/>
<rect x="81.561" y="51.2561" width="10.1951" height="10.1951" fill="#FCA318"/>
<rect x="81.561" y="30.8658" width="10.1951" height="10.1951" fill="#FCA318"/>
<rect x="81.561" y="10.4756" width="10.1951" height="10.1951" fill="#FCA318"/>
<rect x="101.951" y="92.0366" width="10.1951" height="10.1951" fill="#FCA318"/>
<rect x="101.951" y="71.6463" width="10.1951" height="10.1951" fill="#FCA318"/>
<rect x="101.951" y="51.2561" width="10.1951" height="10.1951" fill="#FCA318"/>
<rect x="122.341" y="51.2561" width="10.1951" height="10.1951" fill="#FCA318"/>
<rect x="101.951" y="30.8658" width="10.1951" height="10.1951" fill="#FCA318"/>
<rect x="122.341" y="30.8658" width="10.1951" height="10.1951" fill="#FCA318"/>
<rect x="142.732" y="30.8658" width="10.1951" height="10.1951" fill="#FCA318"/>
<rect x="101.951" y="10.4756" width="10.1951" height="10.1951" fill="#FCA318"/>
<rect x="122.341" y="10.4756" width="10.1951" height="10.1951" fill="#FCA318"/>
<rect x="132.537" y="0.280487" width="10.1951" height="10.1951" fill="#FCA318"/>
<rect x="142.732" y="10.4756" width="10.1951" height="10.1951" fill="#FCA318"/>
<rect x="81.561" y="214.378" width="10.1951" height="10.1951" fill="#FCA318"/>
<rect x="81.561" y="193.988" width="10.1951" height="10.1951" fill="#FCA318"/>
<rect x="142.732" y="193.988" width="10.1951" height="10.1951" fill="#FCA318"/>
<rect x="142.732" y="153.207" width="10.1951" height="10.1951" fill="#FCA318"/>
<rect x="183.512" y="153.207" width="10.1951" height="10.1951" fill="#FCA318"/>
<rect x="183.512" y="193.988" width="10.1951" height="10.1951" fill="#FCA318"/>
<rect x="224.293" y="153.207" width="10.1951" height="10.1951" fill="#FCA318"/>
<rect x="183.512" y="115.825" width="10.1951" height="10.1951" fill="#FCA318"/>
<rect x="81.561" y="173.598" width="10.1951" height="10.1951" fill="#FCA318"/>
<rect y="214.378" width="10.1951" height="10.1951" fill="#FCA318"/>
<rect x="40.7805" y="214.378" width="10.1951" height="10.1951" fill="#FCA318"/>
<rect x="40.7805" y="193.988" width="10.1951" height="10.1951" fill="#FCA318"/>
<rect x="40.7805" y="173.598" width="10.1951" height="10.1951" fill="#FCA318"/>
<rect x="20.3903" y="153.207" width="10.1951" height="10.1951" fill="#FCA318"/>
</svg>
